<svg xmlns="http://www.w3.org/2000/svg" width="170" height="165" viewBox="0 0 170 165" fill="none">
  <path d="M159.054 87.6562V128.906C159.054 131.641 157.939 134.264 155.954 136.198C153.97 138.132 151.278 139.219 148.471 139.219H21.4767C18.6699 139.219 15.9781 138.132 13.9934 136.198C12.0088 134.264 10.8938 131.641 10.8938 128.906V87.6562C10.8938 84.9212 12.0088 82.2982 13.9934 80.3642C15.9781 78.4302 18.6699 77.3437 21.4767 77.3437H53.2253C54.6286 77.3437 55.9745 77.887 56.9669 78.854C57.9592 79.821 58.5167 81.1325 58.5167 82.5C58.5167 83.8675 57.9592 85.179 56.9669 86.146C55.9745 87.113 54.6286 87.6562 53.2253 87.6562H21.4767V128.906H148.471V87.6562H116.722C115.319 87.6562 113.973 87.113 112.981 86.146C111.988 85.179 111.431 83.8675 111.431 82.5C111.431 81.1325 111.988 79.821 112.981 78.854C113.973 77.887 115.319 77.3437 116.722 77.3437H148.471C151.278 77.3437 153.97 78.4302 155.954 80.3642C157.939 82.2982 159.054 84.9212 159.054 87.6562ZM56.9689 50.0543L79.6824 27.9146V82.5C79.6824 83.8675 80.2399 85.179 81.2322 86.146C82.2246 87.113 83.5705 87.6562 84.9739 87.6562C86.3772 87.6562 87.7231 87.113 88.7155 86.146C89.7078 85.179 90.2653 83.8675 90.2653 82.5V27.9146L112.979 50.0543C113.972 51.0218 115.318 51.5654 116.722 51.5654C118.127 51.5654 119.473 51.0218 120.466 50.0543C121.459 49.0868 122.017 47.7745 122.017 46.4062C122.017 45.038 121.459 43.7257 120.466 42.7582L88.7175 11.8207C88.2261 11.3413 87.6425 10.961 87.0002 10.7015C86.3578 10.442 85.6692 10.3084 84.9739 10.3084C84.2785 10.3084 83.5899 10.442 82.9475 10.7015C82.3052 10.961 81.7216 11.3413 81.2302 11.8207L49.4816 42.7582C48.4887 43.7257 47.9309 45.038 47.9309 46.4062C47.9309 47.7745 48.4887 49.0868 49.4816 50.0543C50.4745 51.0218 51.8211 51.5654 53.2253 51.5654C54.6294 51.5654 55.9761 51.0218 56.9689 50.0543ZM132.597 108.281C132.597 106.752 132.131 105.256 131.259 103.984C130.387 102.712 129.147 101.721 127.697 101.136C126.247 100.55 124.651 100.397 123.111 100.695C121.571 100.994 120.157 101.731 119.047 102.812C117.937 103.894 117.181 105.272 116.875 106.772C116.569 108.273 116.726 109.828 117.327 111.241C117.927 112.654 118.945 113.862 120.25 114.712C121.555 115.562 123.09 116.016 124.66 116.016C126.765 116.016 128.783 115.201 130.272 113.75C131.761 112.3 132.597 110.333 132.597 108.281Z" fill="#FFF9F9"/>
</svg>